<?xml version="1.0" encoding="utf-8"?>
<!-- Generator: Adobe Illustrator 16.0.0, SVG Export Plug-In . SVG Version: 6.00 Build 0)  -->
<!DOCTYPE svg PUBLIC "-//W3C//DTD SVG 1.1//EN" "http://www.w3.org/Graphics/SVG/1.1/DTD/svg11.dtd">
<svg version="1.1" id="Layer_1" xmlns="http://www.w3.org/2000/svg" xmlns:xlink="http://www.w3.org/1999/xlink" x="0px" y="0px"
	 width="138.982px" height="55.993px" viewBox="0 0 138.982 55.993" enable-background="new 0 0 138.982 55.993"
	 xml:space="preserve">
<g>
	<g>
		<path fill-rule="evenodd" clip-rule="evenodd" fill="none" d="M69.991,1c23.163,0,46.327,0.015,69.491-0.038
			c1.3-0.003,1.543,0.238,1.538,1.538c-0.057,17.998-0.057,35.996,0,53.994c0.005,1.3-0.239,1.539-1.538,1.538
			c-46.328-0.045-92.655-0.045-138.983,0c-1.299,0.001-1.542-0.238-1.538-1.538c0.057-17.998,0.057-35.996,0-53.994
			C-1.043,1.2-0.8,0.959,0.5,0.962C23.663,1.015,46.827,1,69.991,1z M105.986,33.996c1.281,1.858,3.07,0.823,4.679,0.821
			c-0.227-0.81-0.603-1.612-0.647-2.432c-0.089-1.642-0.007-3.294,0.049-4.939c0.003-0.073,0.438-0.169,0.673-0.176
			c0.079-0.003,0.231,0.238,0.237,0.373c0.126,3.251,1.49-0.602,7.745,7.355c0.153-0.021,1.214,0.052,2.02-0.366
			c0.588-0.305,0.878-1.239,1.208-1.937c0.058-0.122-0.413-0.693-0.526-0.661c-0.584,0.167-1.15,0.43-1.684,0.729
			c-0.278,0.156-0.452,0.491-0.717,0.685c-1.169,0.852-1.704-0.975-2.754-0.669c0.496-0.351,0.979-0.721,1.489-1.05
			c0.915-0.591,1.823-1.195,2.772-1.726c1.867-1.042,2.129-2.325,0.5-3.401c-1.005-0.664-2.223-1.041-3.388-1.411
			c-0.584-0.186-4.524,2.735-4.657,3.302c-0.899,3.852,1.098,6.487,0-0.498c0-0.332,0.141-0.814-0.024-0.971
			c-0.622-0.585-1.291-1.374-2.041-1.502c-0.906-0.153-1.905,0.359-2.878,0.457c-1.676,0.167-0.979,1.426-1.026,2.243
			c-0.097,1.656,0.018,3.325-0.074,4.981c-0.015,0.28-0.621,0.528-5.336,1.807c1.585-0.077,3.023,0.411,3.869-1.024
			c0.26-0.441,0.347-0.985,0.512-1.482c-0.564-0.105-1.222-0.439-1.669-0.258c-0.565,0.229-0.978,1.282-1.426,1.264
			c-0.93-0.038-1.84-0.55-2.757-0.867c0.468-0.233,0.938-0.463,1.403-0.7c0.686-0.348,1.499-0.565,2.022-1.079
			c0.903-0.888,2.302-1.979,2.275-2.95c-0.045-1.646-2.176-1.4-3.173-2.086c-1.8-1.237-2.649,0.21-3.538,0.679
			c-1.853,0.976-3.071,4.526-2.059,5.944C98.156,33.978,99.468,35.778,105.986,33.996z M62.001,22.831
			c-0.05-2.731,0.544-5.375-1.12-7.327c-1.652-1.937-3.361-3.887-5.837-5.058c-1.884-0.891-4.002-0.981-5.718-1.825
			c-1.835-0.902-3.122-2.917-4.658-4.437c-0.101-0.101-0.283-0.114-0.418-0.187c-3.214-1.725-6.706-0.662-10.052-1.037
			c-1.595-0.18-2.348,0.791-3.339,1.639c-1.2,1.025-2.604,1.815-3.778,2.864c-0.995,0.889-1.943,1.349-3.345,1.635
			c-6.481,1.323-10.902,6.652-10.73,12.521c0.075,2.551-0.546,5.202,0.992,7.563c-1.76,2.333-0.969,5.038-0.949,7.563
			c0.049,6.197,4.024,9.557,8.482,11.191c2.72,0.996,5.423,1.806,7.199,4.292c1.075,1.505,2.769,2.504,4.349,2.665
			c5.554,0.568,11.009,0.33,15.063-4.485c0.562-0.667,1.595-1.365,2.381-1.334c2.239,0.088,3.92-1.183,5.614-2.151
			c2.531-1.448,5.104-3.609,5.59-6.376c0.603-3.43,0.917-7.144-0.336-10.654c-0.156-0.436-0.512-1.152-0.363-1.29
			C62.993,26.796,61.504,24.491,62.001,22.831z M90.584,34.994c1.988-0.014,3.976-0.038,5.964-0.058
			c-0.521-1.327-1.066-2.645-1.532-3.99c-0.072-0.211,0.28-0.539,0.344-0.833c0.23-1.074,0.457-2.151,0.602-3.239
			c0.033-0.248-0.238-0.752-0.414-0.772c-0.436-0.052-1.119-0.05-1.304,0.212c-0.525,0.746-1.07,1.599-1.203,2.47
			c-0.199,1.301-0.094,2.655-0.04,3.984c0.05,1.212-0.669,1.221-1.572,1.251c-1.034,0.035-1.489-0.273-1.456-1.374
			c0.06-1.994,0.097-3.996-0.005-5.987c-0.106-2.063,0.118-3.894,1.999-5.193c0.353-0.244,0.414-0.909,0.61-1.38
			c-0.652-0.029-1.579-0.347-1.908-0.034c-1.016,0.962-2.188,2.049-2.563,3.308c-0.328,1.102-0.463,1.679-1.695,1.765
			c-0.557,0.039-1.085,0.558-1.618,0.874c-1.744,1.032-3.307,4.466-2.803,6.147c0.48,1.602,2.664,2.827,5.102,2.85
			C88.255,35.005,89.42,35.003,90.584,34.994z M78.199,34.996c0.99,0,1.982,0.042,2.966-0.037c0.188-0.016,0.543-0.666,0.472-0.762
			c-1.326-1.78-0.387-3.799-0.635-5.682c-0.204-1.548-2.961-3.943-4.369-3.462c-1.138,0.389-2.216,1.157-3.116,1.981
			c-0.957,0.875-0.842,1.993,0.003,3.009c0.146,0.174,0.29,0.595,0.212,0.671c-1.145,1.112-0.942,2.225-0.123,3.41
			c0.955,1.38,2.368,0.729,3.602,0.865C77.536,35.026,77.869,34.996,78.199,34.996z M93.476,21.095
			c-0.256,1.531-0.448,2.22-0.471,2.915c-0.044,1.33,1.035,1.032,1.72,0.937c0.456-0.063,0.845-0.607,1.264-0.937
			C95.332,23.249,94.677,22.487,93.476,21.095z"/>
		<path fill-rule="evenodd" clip-rule="evenodd" d="M62.001,22.831c-0.498,1.66,0.992,3.965-0.972,5.771
			c-0.149,0.138,0.207,0.854,0.363,1.29c1.253,3.511,0.938,7.225,0.336,10.654c-0.486,2.767-3.059,4.928-5.59,6.376
			c-1.694,0.969-3.375,2.239-5.614,2.151c-0.787-0.031-1.819,0.667-2.381,1.334c-4.054,4.815-9.509,5.054-15.063,4.485
			c-1.58-0.161-3.274-1.16-4.349-2.665c-1.776-2.486-4.479-3.296-7.199-4.292c-4.458-1.635-8.433-4.994-8.482-11.191
			c-0.02-2.524-0.811-5.229,0.949-7.563c-1.538-2.362-0.917-5.013-0.992-7.563c-0.172-5.868,4.249-11.198,10.73-12.521
			c1.402-0.286,2.35-0.746,3.345-1.635c1.174-1.049,2.578-1.838,3.778-2.864c0.992-0.848,1.744-1.818,3.339-1.639
			c3.346,0.375,6.837-0.688,10.052,1.037c0.135,0.072,0.317,0.086,0.418,0.187c1.536,1.521,2.822,3.535,4.658,4.437
			c1.716,0.844,3.834,0.934,5.718,1.825c2.476,1.171,4.186,3.121,5.837,5.058C62.546,17.456,61.951,20.1,62.001,22.831z
			 M29.996,32.996c1.706,0.08,3.439,0.213,4.581-2.918c-0.193,0.156-0.387,0.314-0.582,0.472c0.148,0.149,0.297,0.298,0.446,0.446
			c0.154-0.197,0.326-0.385,0.444-0.602c0.02-0.037-0.193-0.201-0.89,0.602c-1.707-0.08-3.439-0.213-4,2.446
			C29.996,33.293,29.996,33.145,29.996,32.996c-0.259,0.093-0.549,0.144-0.758,0.302c-0.063,0.048,0.104,0.396,0.166,0.605
			C29.601,33.75,29.799,33.596,29.996,32.996z M34.914,27.579c-0.157-0.193-0.315-0.388-0.473-0.582
			c-0.148,0.148-0.297,0.297-0.446,0.446c0.197,0.153,0.385,0.326,0.602,0.443c0.037,0.021,0.201-0.192-1.266-0.578
			c0.37-0.447,0.67-0.75,0.642-0.785c-1.125-1.384-2.678-2.059-4.348-2.496c-0.12-0.031-0.352,0.368-0.532,0.567
			C30.5,25.495,31.906,26.395,34.914,27.579z M45.03,23.787c-1.26,0.849-2.651,1.778-4.026,2.732
			c-0.077,0.054-0.021,0.456-0.008,0.457c0.326,0.026,0.715,0.136,0.971,0.001c1.213-0.641,2.401-1.335,3.57-2.054
			c0.15-0.093,0.179-0.443,0.186-0.677c0.002-0.079-0.238-0.166-4.729,3.197c0-0.149,0-0.298,0-0.446
			c-0.259,0.093-0.549,0.144-0.758,0.302c-0.063,0.048,0.104,0.396,0.166,0.605C40.6,27.75,40.797,27.596,45.03,23.787z
			 M40.549,30.996c0.148,0,0.297,0,0.446,0c-0.092-0.259-0.144-0.549-0.302-0.758c-0.047-0.063-0.395,0.104-0.605,0.165
			c0.154,0.198,0.308,0.396,5.948,2.68c-1.513-0.693-3.029-1.396-4.553-2.079c-0.136-0.061-0.324-0.008-0.488-0.008
			c0.114,0.28,0.146,0.683,0.355,0.821c1.148,0.762,2.325,1.484,3.53,2.152c0.189,0.104,0.58-0.12,0.859-0.236
			C45.823,33.698,45.846,33.515,40.549,30.996z M48.994,16.021c0-1.156-0.095-2.323,0.024-3.466c0.148-1.432-0.578-1.71-1.737-1.552
			c-3.05,0.417-5.683,1.72-7.726,4.012c-0.451,0.507-0.791,1.816-0.491,2.169c1.476,1.738,0.763,3.717,0.928,5.59
			c0.126,1.443,0.743,1.504,1.902,0.866c1.197-0.658,2.466-1.31,3.785-1.602c3.255-0.723,3.275-0.641,3.315-4.036
			C49,17.342,48.994,16.681,48.994,16.021z M25.997,42.285c0,1.155,0.043,2.314-0.012,3.468c-0.057,1.184,0.686,1.526,1.529,1.207
			c2.571-0.976,5.456-1.228,7.52-3.433c0.758-0.81,1.409-1.782,0.896-2.549c-1.196-1.788-0.872-3.681-0.939-5.576
			c-0.05-1.414-0.534-1.737-1.745-1.144c-1.101,0.54-2.103,1.387-3.256,1.694c-3.957,1.053-3.975,0.985-3.992,4.846
			C25.995,41.294,25.997,41.79,25.997,42.285z M48.994,41.802c0-1.153,0-2.308,0-3.461c0-1.348-0.837-2.306-1.993-2.278
			c-2.212,0.055-3.923-0.836-5.639-2.011c-0.185-0.126-1.26,0.473-1.306,0.817c-0.212,1.599,0.007,3.272-0.327,4.835
			c-0.59,2.757-0.588,3.498,1.283,4.765c1.39,0.94,2.891,1.751,4.427,2.428c1.542,0.68,3.358-0.46,3.536-2.131
			C49.079,43.787,48.994,42.791,48.994,41.802z M28.546,10.999c-1.344-0.032-2.451,0.872-2.526,2.286
			c-0.096,1.807-0.159,3.638,0.029,5.431c0.107,1.021,0.553,2.148,1.211,2.911c0.384,0.445,1.5,0.224,2.27,0.383
			c0.901,0.187,1.85,0.329,2.656,0.734c0.796,0.399,1.271,1.819,2.357,1.078c0.449-0.308,0.324-1.461,0.452-2.23
			c0.227-1.373-0.584-2.931,0.914-4.109c0.326-0.257,0.332-1.409,0.044-1.877C34.268,12.867,31.515,11.734,28.546,10.999z
			 M24.436,23.652c-1.996,0.799-4.062,1.464-5.96,2.45c-0.975,0.508-1.886,1.484-2.327,2.471c-0.145,0.326,1.276,1.351,1.981,2.055
			c0.235,0.235,0.521,0.438,0.697,0.711c1.266,1.97,3.565,1.927,5.416,2.563c1.888,0.648,2.586-1.623,3.873-2.515
			c0.896-0.62,1.912-1.093,2.72-1.807c0.348-0.307,2.318-0.971-0.011-1.651c-1.293-0.378-2.896-1.171-3.448-2.245
			C26.665,24.3,26.055,23.683,24.436,23.652z M58.973,29.478c-0.118-0.118-0.233-0.237-0.352-0.353
			c-1.423-1.376-2.708-2.947-4.301-4.083c-2.497-1.779-4.336-1.399-6.745,0.854c-0.813,0.761-1.643,1.634-2.635,2.047
			c-1.497,0.624-1.169,1.38-0.346,2.102c0.935,0.821,2.117,1.356,3.075,2.154c2.621,2.183,3.506,2.367,6.313,0.78
			c1.492-0.844,2.893-1.851,4.319-2.806C58.563,29.998,58.752,29.713,58.973,29.478z M39.917,53.252
			c0.96-0.42,2.006-0.712,2.858-1.29c1.106-0.751,2.059-1.729,3.078-2.609c-0.962-0.452-1.967-0.833-2.875-1.375
			c-1.458-0.868-2.856-1.837-4.27-2.776c-0.48-0.319-0.932-0.682-1.396-1.024c-0.105,0.613-0.284,1.225-0.302,1.84
			c-0.045,1.477-0.493,3.223,0.136,4.349C37.652,51.271,37.566,53.531,39.917,53.252z M37.995,11.127
			c0-0.328-0.031-0.66,0.005-0.984c0.221-1.965-0.178-4.217-1.728-4.992c-1.844-0.922-3.914,0.37-5.577,1.656
			c-0.258,0.199-0.474,0.454-0.699,0.693c-0.618,0.659-1.589,0.847,0.266,1.654c2.333,1.015,5.041,1.864,6.633,4.227
			c0.153,0.228,0.454,0.356,0.686,0.53c0.138-0.271,0.369-0.534,0.394-0.815C38.036,12.445,37.995,11.784,37.995,11.127z
			 M14.998,22.259c0,1.152-0.044,2.309,0.023,3.457c0.025,0.434,0.308,0.853,0.474,1.278c0.232-0.231,0.448-0.483,0.701-0.689
			c1.723-1.401,3.398-2.871,5.209-4.147c0.677-0.477,1.676-0.495,2.528-0.722c-0.698-0.699-1.34-1.469-2.107-2.082
			c-1.718-1.375-3.769-1.578-5.849-1.301c-0.375,0.05-0.865,0.778-0.936,1.248C14.896,20.267,14.998,21.271,14.998,22.259z
			 M24.503,37.764c-0.811-0.352-1.377-0.841-1.755-0.723c-2.403,0.748-3.997,2.628-5.608,4.409
			c-0.204,0.227,0.157,1.191,0.491,1.638c1.586,2.122,4.206,2.626,6.356,3.868c0.114,0.066,0.821-0.556,0.788-0.623
			C23.426,43.654,22.188,40.988,24.503,37.764z M59.992,35.733c0-1.151,0.044-2.308-0.023-3.456
			c-0.025-0.434-0.308-0.853-0.474-1.278c-0.233,0.231-0.448,0.483-0.701,0.689c-1.723,1.401-3.398,2.871-5.209,4.146
			c-0.677,0.477-1.676,0.495-2.529,0.723c0.699,0.699,1.327,1.498,2.124,2.058c0.463,0.325,1.213,0.21,1.805,0.389
			C59.987,40.518,59.985,40.524,59.992,35.733z M51.895,21.195c1.215-0.709,2.424-1.187,3.329-2.001
			c1.061-0.955,1.858-2.203,2.77-3.324c-1.224-1.291-2.408-2.625-3.706-3.835c-0.268-0.249-0.996,0.069-1.457-0.063
			c-0.537-0.155-1.014-0.52-1.517-0.792c-0.096,0.783-0.566,1.867-0.222,2.298c1.333,1.667,1.161,3.152,0.142,4.838
			c-0.301,0.497-0.279,1.269-0.198,1.886C51.081,20.542,51.559,20.826,51.895,21.195z M24.566,11.793
			c-0.003,0.048,0.117-0.351,0.002-0.662c-0.05-0.136-0.666-0.237-0.884-0.11c-2.005,1.162-4.501,1.479-5.933,3.659
			c-0.545,0.831-1.013,1.03,0.376,1.374c1.759,0.436,3.417,1.277,5.12,1.944C25.102,16.331,23.188,13.963,24.566,11.793z
			 M50.993,45.839c-0.177-0.013-0.353-0.026-0.529-0.04c-0.032,0.357-0.161,0.75-0.05,1.055c0.05,0.137,0.624,0.216,0.884,0.118
			c0.711-0.269,1.359-0.866,2.071-0.937c2.263-0.224,2.985-2.344,4.522-3.438c-1.195-0.534-2.387-1.075-3.587-1.598
			c-0.418-0.183-0.871-0.29-1.283-0.483c-1.677-0.786-1.979-0.658-2.021,0.99C50.965,42.95,50.993,44.395,50.993,45.839z
			 M59.992,23.033c0-1.149,0.025-2.299-0.013-3.448c-0.015-0.457-0.171-0.909-0.263-1.364c-0.349,0.199-0.724,0.362-1.041,0.604
			c-1.501,1.145-2.987,2.31-4.478,3.467c1.47,1.273,2.936,2.554,4.415,3.817c0.32,0.273,0.692,0.485,1.041,0.726
			c0.112-0.446,0.294-0.888,0.323-1.338C60.03,24.679,59.992,23.854,59.992,23.033z M35.754,52.695
			c-0.339-2.368-0.62-4.36-0.938-6.347c-0.006-0.036-0.616-0.072-0.645,0.005c-0.797,2.098-3.22,1.14-4.484,2.396
			c-0.398,0.397-1.102,0.487-1.666,0.718c0.547,0.23,1.242,0.321,1.613,0.717c1.333,1.422,2.901,2.4,4.794,2.775
			C34.933,53.06,35.518,52.748,35.754,52.695z M39.626,4.196c-0.081,1.113-0.159,1.464-0.123,1.802
			c0.202,1.889,0.432,3.775,0.652,5.662c1.682-0.887,3.349-1.805,5.057-2.638c0.402-0.196,0.946-0.089,1.41-0.188
			c0.057-0.012,0.118-0.592,0.024-0.646C44.54,6.96,42.413,5.769,39.626,4.196z M14.998,34.975c0,1.148-0.026,2.299,0.013,3.447
			c0.016,0.456,0.178,0.906,0.273,1.359c0.348-0.206,0.735-0.366,1.038-0.625c1.437-1.23,2.428-3.031,4.479-3.466
			c-1.477-1.273-2.949-2.554-4.436-3.816c-0.318-0.27-0.692-0.472-1.041-0.706c-0.109,0.448-0.285,0.892-0.313,1.344
			C14.961,33.329,14.998,34.153,14.998,34.975z M36.834,22.62c0.897,1.237-0.813,2.98,0.825,4.212
			c0.112-1.438,0.367-2.884,0.29-4.313c-0.061-1.117,0.69-2.455-0.618-3.358C37.172,20.264,37.014,21.366,36.834,22.62z
			 M38.116,35.682c-0.546-1.589,0.761-3.272-0.778-4.528c-0.114,1.438-0.374,2.883-0.296,4.309c0.06,1.123-0.685,2.461,0.611,3.376
			C37.814,37.737,37.976,36.637,38.116,35.682z"/>
		<path fill-rule="evenodd" clip-rule="evenodd" d="M90.584,34.994c-1.164,0.009-2.329,0.011-3.493,0
			c-2.438-0.022-4.621-1.248-5.102-2.85c-0.504-1.681,1.059-5.115,2.803-6.147c0.533-0.315,1.062-0.834,1.618-0.874
			c1.232-0.086,1.367-0.663,1.695-1.765c0.374-1.259,1.547-2.346,2.563-3.308c0.329-0.313,1.256,0.005,1.908,0.034
			c-0.196,0.471-0.258,1.136-0.61,1.38c-1.881,1.299-2.105,3.13-1.999,5.193c0.102,1.991,0.064,3.993,0.005,5.987
			c-0.033,1.101,0.422,1.409,1.456,1.374c0.903-0.03,1.622-0.039,1.572-1.251c-0.054-1.329-0.159-2.684,0.04-3.984
			c0.133-0.872,0.678-1.724,1.203-2.47c0.185-0.262,0.868-0.264,1.304-0.212c0.176,0.021,0.447,0.524,0.414,0.772
			c-0.145,1.088-0.371,2.165-0.602,3.239c-0.063,0.294-0.416,0.622-0.344,0.833c0.466,1.346,1.012,2.663,1.532,3.99
			C94.56,34.956,92.572,34.98,90.584,34.994z M86.989,30.021c0-0.67,0.07-1.336-0.029-1.976c-0.051-0.322-0.409-0.595-0.628-0.891
			c-0.231,0.231-0.564,0.423-0.675,0.702c-0.276,0.705-0.683,1.472-0.613,2.173c0.1,0.993-0.878,2.733,0.723,2.868
			C88.125,33.097,86.534,30.983,86.989,30.021z"/>
		<path fill-rule="evenodd" clip-rule="evenodd" d="M78.199,34.996c-0.33,0-0.663,0.03-0.989-0.006
			c-1.233-0.136-2.646,0.515-3.602-0.865c-0.819-1.186-1.021-2.298,0.123-3.41c0.078-0.076-0.066-0.497-0.212-0.671
			c-0.845-1.017-0.96-2.134-0.003-3.009c0.9-0.824,1.979-1.592,3.116-1.981c1.408-0.481,4.165,1.914,4.369,3.462
			c0.248,1.883-0.691,3.901,0.635,5.682c0.071,0.096-0.284,0.746-0.472,0.762C80.182,35.038,79.189,34.996,78.199,34.996z
			 M77.146,34.463c0.722-1.06,1.3-1.874,1.798-2.734c0.027-0.048-0.855-0.737-0.9-0.694c-0.725,0.693-1.399,1.442-2.012,2.235
			C75.993,33.319,76.551,33.831,77.146,34.463z M77.232,29.229c0.752-0.271,1.177-0.423,1.601-0.575
			c-0.793-0.541-1.586-1.081-2.379-1.621c-0.154,0.259-0.503,0.645-0.431,0.755C76.366,28.313,76.823,28.762,77.232,29.229z"/>
		<path fill-rule="evenodd" clip-rule="evenodd" d="M118.722,34.999c-4.639-0.018-6.636-2.653-5.736-6.505
			c0.133-0.567,4.073-3.487,4.657-3.302c1.165,0.37,2.383,0.747,3.388,1.411c1.629,1.076,1.367,2.359-0.5,3.401
			c-0.949,0.53-1.857,1.135-2.772,1.726c-0.51,0.329-0.993,0.699-1.489,1.05c1.05-0.306,1.585,1.521,2.754,0.669
			c0.265-0.193,0.438-0.528,0.717-0.685c0.533-0.299,1.1-0.562,1.684-0.729c0.113-0.032,0.584,0.539,0.526,0.661
			c-0.33,0.697-0.62,1.632-1.208,1.937C119.936,35.051,118.875,34.978,118.722,34.999z M119.003,28.515
			c-0.487-0.488-1.068-1.197-1.158-1.139c-0.997,0.638-1.918,1.395-2.859,2.121c0.118,0.118,0.225,0.322,0.354,0.339
			c0.642,0.081,1.374,0.323,1.913,0.107C117.916,29.677,118.421,29.014,119.003,28.515z"/>
		<path fill-rule="evenodd" clip-rule="evenodd" d="M101.605,35.012c-2.138,0.767-3.449-1.034-4.539-2.561
			c-1.013-1.418,0.206-4.968,2.059-5.944c0.889-0.469,1.738-1.916,3.538-0.679c0.997,0.686,3.128,0.44,3.173,2.086
			c0.026,0.971-1.372,2.062-2.275,2.95c-0.523,0.514-1.337,0.731-2.022,1.079c-0.466,0.237-0.936,0.467-1.403,0.7
			c0.917,0.317,1.827,0.829,2.757,0.867c0.448,0.019,0.86-1.034,1.426-1.264c0.447-0.182,1.104,0.152,1.669,0.258
			c-0.165,0.497-0.252,1.041-0.512,1.482C104.629,35.423,103.19,34.935,101.605,35.012z M99.537,29.969
			c2.017,0.118,3.475-0.707,3.219-1.633c-0.143-0.515-1.05-1.322-1.271-1.224c-0.903,0.4-1.721,1.049-2.451,1.734
			C98.919,28.953,99.418,29.715,99.537,29.969z"/>
		<path fill-rule="evenodd" clip-rule="evenodd" d="M105.986,33.996c0.334-0.263,0.94-0.511,0.955-0.791
			c0.092-1.656-0.022-3.325,0.074-4.981c0.048-0.817-0.649-2.076,1.026-2.243c0.973-0.098,1.972-0.61,2.878-0.457
			c0.75,0.128,1.419,0.917,2.041,1.502c0.165,0.156,0.024,0.639,0.024,0.971c-0.519-0.954-1.883,2.899-2.009-0.353
			c-0.006-0.135-0.158-0.376-0.237-0.373c-0.235,0.007-0.67,0.103-0.673,0.176c-0.056,1.645-0.138,3.297-0.049,4.939
			c0.045,0.819,0.421,1.622,0.647,2.432C109.057,34.819,107.268,35.854,105.986,33.996z"/>
		<path fill-rule="evenodd" clip-rule="evenodd" d="M93.476,21.095c1.201,1.392,1.856,2.154,2.513,2.915
			c-0.419,0.329-0.808,0.873-1.264,0.937c-0.685,0.096-1.764,0.394-1.72-0.937C93.027,23.315,93.22,22.626,93.476,21.095z"/>
		<path fill-rule="evenodd" clip-rule="evenodd" fill="none" d="M48.994,16.021c0,0.66,0.007,1.321-0.001,1.982
			c-0.04,3.395-0.06,3.313-3.315,4.036c-1.318,0.292-2.587,0.943-3.785,1.602c-1.159,0.638-1.775,0.577-1.902-0.866
			c-0.165-1.873,0.548-3.852-0.928-5.59c-0.3-0.353,0.04-1.662,0.491-2.169c2.043-2.292,4.676-3.595,7.726-4.012
			c1.159-0.158,1.885,0.12,1.737,1.552C48.899,13.697,48.994,14.864,48.994,16.021z"/>
		<path fill-rule="evenodd" clip-rule="evenodd" fill="none" d="M25.997,42.285c0-0.495-0.002-0.991,0-1.486
			c0.017-3.86,0.036-3.793,3.992-4.846c1.154-0.308,2.156-1.154,3.256-1.694c1.21-0.594,1.694-0.271,1.745,1.144
			c0.067,1.896-0.257,3.788,0.939,5.576c0.513,0.767-0.139,1.739-0.896,2.549c-2.063,2.205-4.948,2.457-7.52,3.433
			c-0.843,0.319-1.586-0.023-1.529-1.207C26.04,44.6,25.997,43.44,25.997,42.285z"/>
		<path fill-rule="evenodd" clip-rule="evenodd" fill="none" d="M48.994,41.802c0,0.989,0.085,1.985-0.019,2.964
			c-0.177,1.671-1.994,2.811-3.536,2.131c-1.536-0.677-3.038-1.487-4.427-2.428c-1.871-1.267-1.873-2.008-1.283-4.765
			c0.334-1.563,0.115-3.236,0.327-4.835c0.046-0.345,1.122-0.943,1.306-0.817c1.716,1.175,3.426,2.065,5.639,2.011
			c1.155-0.027,1.993,0.931,1.993,2.278C48.994,39.494,48.994,40.648,48.994,41.802z"/>
		<path fill-rule="evenodd" clip-rule="evenodd" fill="none" d="M28.545,10.999c2.97,0.735,5.723,1.868,7.407,4.606
			c0.288,0.468,0.282,1.62-0.044,1.877c-1.498,1.178-0.687,2.737-0.914,4.109c-0.127,0.77-0.002,1.923-0.452,2.23
			c-1.085,0.741-1.561-0.679-2.357-1.078c-0.807-0.405-1.755-0.548-2.656-0.734c-0.77-0.159-1.885,0.063-2.27-0.383
			c-0.659-0.762-1.104-1.89-1.211-2.911c-0.188-1.792-0.125-3.624-0.029-5.431C26.095,11.871,27.202,10.966,28.545,10.999z"/>
		<path fill-rule="evenodd" clip-rule="evenodd" fill="none" d="M24.436,23.652c1.62,0.03,2.229,0.647,2.94,2.033
			c0.552,1.074,2.154,1.867,3.448,2.245c2.33,0.68,0.359,1.344,0.011,1.651c-0.808,0.714-1.823,1.187-2.72,1.807
			c-1.287,0.892-1.985,3.163-3.873,2.515c-1.851-0.637-4.15-0.594-5.416-2.563c-0.176-0.273-0.462-0.476-0.697-0.711
			c-0.705-0.704-2.126-1.729-1.981-2.055c0.441-0.987,1.352-1.963,2.327-2.471C20.374,25.116,22.439,24.451,24.436,23.652z"/>
		<path fill-rule="evenodd" clip-rule="evenodd" fill="none" d="M58.974,29.478c-0.222,0.235-0.41,0.521-0.672,0.696
			c-1.427,0.955-2.828,1.962-4.319,2.806c-2.807,1.587-3.692,1.402-6.313-0.78c-0.958-0.798-2.14-1.333-3.075-2.154
			c-0.823-0.722-1.151-1.479,0.346-2.102c0.992-0.413,1.821-1.286,2.635-2.047c2.409-2.253,4.249-2.633,6.745-0.854
			c1.594,1.136,2.878,2.707,4.301,4.083C58.74,29.24,58.855,29.359,58.974,29.478z"/>
		<path fill-rule="evenodd" clip-rule="evenodd" fill="none" d="M39.917,53.252c-2.351,0.279-2.265-1.98-2.771-2.887
			c-0.629-1.126-0.181-2.872-0.136-4.349c0.019-0.615,0.197-1.227,0.302-1.84c0.464,0.343,0.916,0.705,1.396,1.024
			c1.414,0.939,2.812,1.908,4.27,2.776c0.909,0.542,1.914,0.923,2.875,1.375c-1.019,0.881-1.972,1.858-3.078,2.609
			C41.923,52.54,40.877,52.832,39.917,53.252z"/>
		<path fill-rule="evenodd" clip-rule="evenodd" fill="none" d="M37.995,11.127c0,0.656,0.041,1.317-0.019,1.969
			c-0.025,0.281-0.256,0.544-0.394,0.815c-0.232-0.174-0.533-0.302-0.686-0.53c-1.592-2.363-4.3-3.212-6.633-4.227
			c-1.855-0.808-0.884-0.995-0.266-1.654c0.225-0.239,0.441-0.494,0.699-0.693c1.663-1.286,3.733-2.578,5.577-1.656
			c1.55,0.775,1.949,3.027,1.728,4.992C37.964,10.467,37.995,10.799,37.995,11.127z"/>
		<path fill-rule="evenodd" clip-rule="evenodd" fill="none" d="M14.998,22.259c0-0.988-0.102-1.992,0.044-2.958
			c0.071-0.47,0.561-1.198,0.936-1.248c2.081-0.277,4.131-0.074,5.849,1.301c0.767,0.613,1.409,1.383,2.107,2.082
			c-0.852,0.227-1.852,0.246-2.528,0.722c-1.811,1.276-3.487,2.746-5.209,4.147c-0.253,0.206-0.469,0.458-0.701,0.689
			c-0.166-0.426-0.449-0.845-0.474-1.278C14.954,24.567,14.998,23.411,14.998,22.259z"/>
		<path fill-rule="evenodd" clip-rule="evenodd" fill="none" d="M24.503,37.764c-2.315,3.225-1.078,5.891,0.272,8.569
			c0.034,0.067-0.674,0.689-0.788,0.623c-2.15-1.242-4.771-1.746-6.356-3.868c-0.334-0.446-0.695-1.411-0.491-1.638
			c1.611-1.781,3.205-3.661,5.608-4.409C23.126,36.923,23.692,37.412,24.503,37.764z"/>
		<path fill-rule="evenodd" clip-rule="evenodd" fill="none" d="M59.992,35.733c-0.007,4.791-0.005,4.784-5.008,3.271
			c-0.591-0.179-1.342-0.063-1.805-0.389c-0.797-0.56-1.425-1.358-2.124-2.058c0.853-0.228,1.852-0.246,2.529-0.723
			c1.811-1.275,3.487-2.745,5.209-4.146c0.253-0.206,0.468-0.458,0.701-0.689c0.166,0.426,0.449,0.845,0.474,1.278
			C60.037,33.426,59.992,34.582,59.992,35.733z"/>
		<path fill-rule="evenodd" clip-rule="evenodd" fill="none" d="M51.895,21.195c-0.336-0.369-0.813-0.652-0.859-0.994
			c-0.082-0.617-0.103-1.389,0.198-1.886c1.019-1.686,1.19-3.171-0.142-4.838c-0.344-0.431,0.125-1.515,0.222-2.298
			c0.503,0.272,0.98,0.637,1.517,0.792c0.461,0.133,1.189-0.186,1.457,0.063c1.298,1.211,2.481,2.544,3.706,3.835
			c-0.912,1.121-1.708,2.369-2.77,3.324C54.318,20.008,53.109,20.486,51.895,21.195z"/>
		<path fill-rule="evenodd" clip-rule="evenodd" fill="none" d="M24.566,11.793c-1.378,2.169,0.536,4.538-1.319,6.204
			c-1.702-0.667-3.361-1.508-5.12-1.944c-1.389-0.344-0.921-0.543-0.376-1.374c1.432-2.18,3.928-2.497,5.933-3.659
			c0.218-0.127,0.833-0.025,0.884,0.11C24.684,11.443,24.563,11.841,24.566,11.793z"/>
		<path fill-rule="evenodd" clip-rule="evenodd" fill="none" d="M50.993,45.839c0-1.444-0.028-2.889,0.008-4.333
			c0.042-1.648,0.344-1.776,2.021-0.99c0.413,0.193,0.865,0.301,1.283,0.483c1.2,0.522,2.392,1.063,3.587,1.598
			c-1.537,1.095-2.259,3.215-4.522,3.438c-0.712,0.07-1.36,0.668-2.071,0.937c-0.26,0.098-0.834,0.019-0.884-0.118
			c-0.111-0.305,0.018-0.697,0.05-1.055C50.641,45.813,50.816,45.826,50.993,45.839z"/>
		<path fill-rule="evenodd" clip-rule="evenodd" fill="none" d="M59.992,23.033c0,0.821,0.038,1.646-0.015,2.463
			c-0.029,0.451-0.21,0.892-0.323,1.338c-0.349-0.24-0.721-0.452-1.041-0.726c-1.479-1.263-2.945-2.543-4.415-3.817
			c1.491-1.158,2.976-2.323,4.478-3.467c0.316-0.241,0.692-0.404,1.041-0.604c0.092,0.455,0.248,0.907,0.263,1.364
			C60.018,20.734,59.992,21.884,59.992,23.033z"/>
		<path fill-rule="evenodd" clip-rule="evenodd" fill="none" d="M35.754,52.695c-0.237,0.053-0.822,0.364-1.326,0.265
			c-1.893-0.375-3.461-1.354-4.794-2.775c-0.371-0.396-1.066-0.486-1.613-0.717c0.564-0.23,1.268-0.32,1.666-0.718
			c1.264-1.257,3.687-0.299,4.484-2.396c0.029-0.077,0.639-0.041,0.645-0.005C35.134,48.335,35.416,50.327,35.754,52.695z"/>
		<path fill-rule="evenodd" clip-rule="evenodd" fill="none" d="M39.626,4.196c2.787,1.573,4.914,2.764,7.021,3.992
			c0.094,0.055,0.033,0.635-0.024,0.646c-0.464,0.099-1.008-0.009-1.41,0.188c-1.708,0.833-3.375,1.751-5.057,2.638
			c-0.221-1.886-0.45-3.773-0.652-5.662C39.467,5.66,39.545,5.309,39.626,4.196z"/>
		<path fill-rule="evenodd" clip-rule="evenodd" fill="none" d="M14.998,34.975c0-0.821-0.037-1.646,0.015-2.463
			c0.028-0.452,0.204-0.896,0.313-1.344c0.348,0.234,0.723,0.437,1.041,0.706c1.487,1.263,2.959,2.543,4.436,3.816
			c-2.052,0.435-3.043,2.235-4.479,3.466c-0.303,0.259-0.69,0.419-1.038,0.625c-0.096-0.453-0.258-0.903-0.273-1.359
			C14.972,37.273,14.998,36.123,14.998,34.975z"/>
		<path fill-rule="evenodd" clip-rule="evenodd" fill="none" d="M36.834,22.62c0.18-1.254,0.338-2.356,0.497-3.458
			c1.309,0.903,0.558,2.241,0.618,3.358c0.077,1.429-0.178,2.875-0.29,4.313C36.021,25.6,37.731,23.857,36.834,22.62z"/>
		<path fill-rule="evenodd" clip-rule="evenodd" fill="none" d="M38.116,35.682c-0.14,0.955-0.302,2.056-0.463,3.156
			c-1.295-0.915-0.551-2.253-0.611-3.376c-0.077-1.426,0.182-2.871,0.296-4.309C38.877,32.409,37.569,34.093,38.116,35.682z"/>
		<path fill-rule="evenodd" clip-rule="evenodd" fill="none" d="M46.035,33.083c-0.189,0.432-0.212,0.615-0.296,0.65
			c-0.279,0.116-0.67,0.341-0.859,0.236c-1.205-0.668-2.381-1.391-3.53-2.152c-0.208-0.139-0.241-0.541-0.355-0.821
			c0.164,0,0.352-0.053,0.488,0.008C43.006,31.688,44.522,32.39,46.035,33.083z"/>
		<path fill-rule="evenodd" clip-rule="evenodd" fill="none" d="M45.03,23.787c0.455,0.293,0.695,0.38,0.693,0.459
			c-0.006,0.233-0.035,0.584-0.186,0.677c-1.169,0.719-2.357,1.414-3.57,2.054c-0.256,0.135-0.646,0.025-0.971-0.001
			c-0.013-0.001-0.068-0.403,0.008-0.457C42.379,25.565,43.77,24.636,45.03,23.787z"/>
		<path fill-rule="evenodd" clip-rule="evenodd" fill="none" d="M33.332,27.308c-1.425-0.913-2.832-1.813-4.238-2.713
			c0.18-0.199,0.413-0.599,0.532-0.567c1.67,0.437,3.223,1.111,4.348,2.496C34.002,26.558,33.702,26.861,33.332,27.308z"/>
		<path fill-rule="evenodd" clip-rule="evenodd" fill="none" d="M33.996,30.996c-0.56,2.213-2.293,2.08-4,2
			C30.556,30.783,32.289,30.916,33.996,30.996z"/>
		<path fill-rule="evenodd" clip-rule="evenodd" fill="none" d="M40.995,27.443c-0.197,0.153-0.395,0.308-0.592,0.461
			c-0.062-0.21-0.228-0.558-0.166-0.605c0.208-0.158,0.499-0.209,0.758-0.302C40.995,27.145,40.995,27.293,40.995,27.443z"/>
		<path fill-rule="evenodd" clip-rule="evenodd" fill="none" d="M34.577,30.078c0.116,0.115,0.329,0.279,0.309,0.316
			c-0.118,0.217-0.291,0.404-0.444,0.602c-0.148-0.148-0.297-0.297-0.446-0.446C34.19,30.393,34.384,30.234,34.577,30.078z"/>
		<path fill-rule="evenodd" clip-rule="evenodd" fill="none" d="M40.549,30.996c-0.154-0.197-0.308-0.395-0.462-0.593
			c0.21-0.062,0.558-0.228,0.605-0.165c0.159,0.209,0.21,0.499,0.302,0.758C40.846,30.996,40.697,30.996,40.549,30.996z"/>
		<path fill-rule="evenodd" clip-rule="evenodd" fill="none" d="M34.914,27.579c-0.116,0.115-0.279,0.328-0.316,0.308
			c-0.217-0.117-0.405-0.29-0.602-0.443c0.148-0.149,0.297-0.298,0.446-0.446C34.599,27.191,34.757,27.385,34.914,27.579z"/>
		<path fill-rule="evenodd" clip-rule="evenodd" fill="none" d="M29.996,33.442c-0.197,0.153-0.395,0.308-0.592,0.461
			c-0.062-0.21-0.228-0.558-0.166-0.605c0.208-0.158,0.499-0.209,0.758-0.302C29.996,33.145,29.996,33.293,29.996,33.442z"/>
		<path fill-rule="evenodd" clip-rule="evenodd" fill="none" d="M86.989,30.021c-0.455,0.963,1.136,3.076-1.223,2.877
			c-1.601-0.135-0.623-1.875-0.723-2.868c-0.069-0.701,0.337-1.469,0.613-2.173c0.11-0.279,0.443-0.471,0.675-0.702
			c0.219,0.296,0.577,0.569,0.628,0.891C87.06,28.685,86.989,29.351,86.989,30.021z"/>
		<path fill-rule="evenodd" clip-rule="evenodd" fill="none" d="M77.146,34.463c-0.596-0.632-1.153-1.144-1.114-1.193
			c0.612-0.793,1.287-1.542,2.012-2.235c0.045-0.043,0.928,0.646,0.9,0.694C78.446,32.589,77.868,33.403,77.146,34.463z"/>
		<path fill-rule="evenodd" clip-rule="evenodd" fill="none" d="M77.232,29.229c-0.409-0.467-0.866-0.916-1.209-1.441
			c-0.072-0.11,0.276-0.496,0.431-0.755c0.793,0.54,1.586,1.08,2.379,1.621C78.409,28.806,77.984,28.958,77.232,29.229z"/>
		<path fill-rule="evenodd" clip-rule="evenodd" fill="none" d="M119.003,28.515c-0.582,0.499-1.087,1.162-1.75,1.428
			c-0.539,0.216-1.271-0.026-1.913-0.107c-0.13-0.017-0.236-0.221-0.354-0.339c0.941-0.726,1.862-1.482,2.859-2.121
			C117.935,27.318,118.516,28.026,119.003,28.515z"/>
		<path fill-rule="evenodd" clip-rule="evenodd" fill="none" d="M99.537,29.969c-0.119-0.254-0.618-1.016-0.504-1.123
			c0.73-0.685,1.548-1.333,2.451-1.734c0.222-0.098,1.129,0.709,1.271,1.224C103.012,29.262,101.554,30.087,99.537,29.969z"/>
	</g>
</g>
</svg>
